<svg width="19" height="19" viewBox="0 0 19 19" fill="none" xmlns="http://www.w3.org/2000/svg">
<path d="M17.375 7.60535H14V9.85535H16.25V16.6053H2.75V9.85535H3.875V7.60535H1.625C0.95 7.60535 0.5 8.05535 0.5 8.73035V17.7303C0.5 18.4053 0.95 18.8553 1.625 18.8553H17.375C18.05 18.8553 18.5 18.4053 18.5 17.7303V8.73035C18.5 8.05535 18.05 7.60535 17.375 7.60535Z" fill="white"/>
<path d="M6.125 9.85535H8.375C8.7125 9.85535 8.9375 9.74285 9.1625 9.51785L14.7875 3.89285C15.2375 3.44285 15.2375 2.76785 14.7875 2.31785L13.6625 1.19285C13.2125 0.742847 12.5375 0.742847 12.0875 1.19285L6.4625 6.81785C6.2375 7.04285 6.125 7.26785 6.125 7.60535V9.85535Z" fill="white"/>
<rect x="5" y="12.1053" width="9" height="2.25" fill="white"/>
</svg>
