<svg width="15" height="19" viewBox="0 0 15 19" fill="none" xmlns="http://www.w3.org/2000/svg">
<path d="M7.5 7.60535C10.7625 7.60535 14.25 6.59285 14.25 4.23035C14.25 1.86785 10.7625 0.855347 7.5 0.855347C4.2375 0.855347 0.75 1.86785 0.75 4.23035C0.75 6.59285 4.2375 7.60535 7.5 7.60535Z" fill="white"/>
<path d="M0.75 8.16785V9.85535C0.75 12.2178 4.2375 13.2303 7.5 13.2303C10.7625 13.2303 14.25 12.2178 14.25 9.85535V8.16785C12.675 9.18035 10.3125 9.85535 7.5 9.85535C4.6875 9.85535 2.325 9.18035 0.75 8.16785Z" fill="white"/>
<path d="M0.75 13.7928V15.4803C0.75 17.8428 4.2375 18.8553 7.5 18.8553C10.7625 18.8553 14.25 17.8428 14.25 15.4803V13.7928C12.675 14.9178 10.3125 15.4803 7.5 15.4803C4.6875 15.4803 2.325 14.8053 0.75 13.7928Z" fill="white"/>
</svg>
