<svg width="160" height="28" viewBox="0 0 160 28" fill="none" xmlns="http://www.w3.org/2000/svg">
<path d="M18.5234 1.10156V2.78125H4.87109V12.0391H14.0117V13.7188H4.87109V25.3203H18.5234V27H0.515625V1.10156H18.5234Z" fill="white"/>
<path d="M27.7422 14.1484C27.7422 15.9583 28.0156 17.5859 28.5625 19.0312C29.1094 20.4635 29.8581 21.681 30.8086 22.6836C31.7721 23.6732 32.9049 24.4349 34.207 24.9688C35.5091 25.4896 36.9219 25.75 38.4453 25.75C39.3568 25.75 40.2357 25.5742 41.082 25.2227C41.9284 24.8711 42.7096 24.4154 43.4258 23.8555C44.1549 23.2826 44.806 22.6445 45.3789 21.9414C45.9518 21.2253 46.4206 20.5026 46.7852 19.7734L48.6211 20.9453C48.0872 21.8177 47.4557 22.6576 46.7266 23.4648C45.9974 24.2591 45.151 24.9688 44.1875 25.5938C43.237 26.2057 42.1562 26.694 40.9453 27.0586C39.7474 27.4232 38.4062 27.6055 36.9219 27.6055C34.7734 27.6055 32.8203 27.2474 31.0625 26.5312C29.3177 25.8151 27.8203 24.8451 26.5703 23.6211C25.3203 22.3971 24.3503 20.9714 23.6602 19.3438C22.9831 17.7031 22.6445 15.9714 22.6445 14.1484C22.6445 12.9375 22.8008 11.7591 23.1133 10.6133C23.4258 9.45443 23.875 8.3737 24.4609 7.37109C25.0599 6.35547 25.7826 5.43099 26.6289 4.59766C27.4883 3.7513 28.4518 3.02865 29.5195 2.42969C30.6003 1.81771 31.7786 1.34896 33.0547 1.02344C34.3307 0.684896 35.6914 0.515625 37.1367 0.515625C38.5169 0.515625 39.7865 0.704427 40.9453 1.08203C42.1172 1.44661 43.1784 1.9349 44.1289 2.54688C45.0924 3.15885 45.9453 3.86849 46.6875 4.67578C47.4427 5.47005 48.0872 6.30339 48.6211 7.17578L46.7266 8.42578C45.6458 6.32943 44.4349 4.79948 43.0938 3.83594C41.7526 2.85938 40.2096 2.37109 38.4648 2.37109C36.9674 2.37109 35.5677 2.64453 34.2656 3.19141C32.9635 3.73828 31.8242 4.51953 30.8477 5.53516C29.8841 6.55078 29.1224 7.78776 28.5625 9.24609C28.0156 10.6914 27.7422 12.3255 27.7422 14.1484Z" fill="white"/>
<path d="M59.0508 14.5781V27H54.6953V1.10156H59.0508V12.8984H72.0586V1.10156H76.4141V27H72.0586V14.5781H59.0508Z" fill="white"/>
<path d="M96.6094 27.6055C94.6042 27.6055 92.7292 27.2474 90.9844 26.5312C89.2526 25.8151 87.7422 24.8385 86.4531 23.6016C85.1771 22.3516 84.168 20.8997 83.4258 19.2461C82.6966 17.5794 82.332 15.8021 82.332 13.9141C82.332 12.6771 82.4948 11.4857 82.8203 10.3398C83.1589 9.19401 83.6341 8.1263 84.2461 7.13672C84.8581 6.14714 85.5938 5.2487 86.4531 4.44141C87.3255 3.62109 88.2891 2.92448 89.3438 2.35156C90.3984 1.76562 91.5378 1.31641 92.7617 1.00391C93.9857 0.678385 95.2682 0.515625 96.6094 0.515625C97.9505 0.515625 99.2331 0.678385 100.457 1.00391C101.681 1.31641 102.82 1.76562 103.875 2.35156C104.943 2.92448 105.906 3.62109 106.766 4.44141C107.625 5.2487 108.361 6.14714 108.973 7.13672C109.598 8.1263 110.073 9.19401 110.398 10.3398C110.737 11.4857 110.906 12.6771 110.906 13.9141C110.906 15.1641 110.737 16.375 110.398 17.5469C110.073 18.7057 109.598 19.793 108.973 20.8086C108.361 21.8242 107.625 22.7487 106.766 23.582C105.906 24.4154 104.943 25.1315 103.875 25.7305C102.82 26.3294 101.681 26.7917 100.457 27.1172C99.2331 27.4427 97.9505 27.6055 96.6094 27.6055ZM96.6094 26.3164C98.0938 26.3164 99.4023 26.0104 100.535 25.3984C101.681 24.7734 102.645 23.9076 103.426 22.8008C104.207 21.694 104.793 20.3854 105.184 18.875C105.587 17.3646 105.789 15.7109 105.789 13.9141C105.789 12.1302 105.587 10.4961 105.184 9.01172C104.793 7.52734 104.207 6.2513 103.426 5.18359C102.645 4.10286 101.681 3.26953 100.535 2.68359C99.4023 2.08464 98.0938 1.78516 96.6094 1.78516C95.099 1.78516 93.7708 2.08464 92.625 2.68359C91.4922 3.26953 90.5352 4.10286 89.7539 5.18359C88.9857 6.2513 88.4062 7.52734 88.0156 9.01172C87.625 10.4961 87.4297 12.1302 87.4297 13.9141C87.4297 15.7109 87.625 17.3646 88.0156 18.875C88.4062 20.3854 88.9857 21.694 89.7539 22.8008C90.5352 23.9076 91.4922 24.7734 92.625 25.3984C93.7708 26.0104 95.099 26.3164 96.6094 26.3164Z" fill="white"/>
<path d="M116.766 1.10156H125.75C127.299 1.10156 128.66 1.27083 129.832 1.60938C131.004 1.9349 131.98 2.39714 132.762 2.99609C133.543 3.59505 134.129 4.3112 134.52 5.14453C134.923 5.96484 135.125 6.86328 135.125 7.83984C135.125 8.64714 134.969 9.40234 134.656 10.1055C134.357 10.8086 133.927 11.4466 133.367 12.0195C132.82 12.5794 132.156 13.0677 131.375 13.4844C130.594 13.888 129.734 14.207 128.797 14.4414L138.23 27H133.172L124.168 14.832H121.121V27H116.766V1.10156ZM121.121 13.5234H123.641C124.617 13.5234 125.516 13.3932 126.336 13.1328C127.169 12.8724 127.885 12.5078 128.484 12.0391C129.096 11.5573 129.572 10.9779 129.91 10.3008C130.249 9.6237 130.418 8.86198 130.418 8.01562C130.418 7.23438 130.281 6.51823 130.008 5.86719C129.747 5.21615 129.37 4.66276 128.875 4.20703C128.393 3.73828 127.814 3.3737 127.137 3.11328C126.473 2.85286 125.743 2.72266 124.949 2.72266H121.121V13.5234Z" fill="white"/>
<path d="M159.773 1.10156V2.78125H146.121V12.0391H155.262V13.7188H146.121V25.3203H159.773V27H141.766V1.10156H159.773Z" fill="white"/>
</svg>
