<svg width="18" height="17" viewBox="0 0 18 17" fill="none" xmlns="http://www.w3.org/2000/svg">
<path fill-rule="evenodd" clip-rule="evenodd" d="M17.3334 8.35518C17.3334 12.9576 13.6025 16.6885 9.00008 16.6885C4.39771 16.6885 0.666748 12.9576 0.666748 8.35518C0.666748 3.75281 4.39771 0.0218506 9.00008 0.0218506C13.6025 0.0218506 17.3334 3.75281 17.3334 8.35518ZM10 3.35535C10 2.80306 9.55229 2.35535 9 2.35535C8.44772 2.35535 8 2.80306 8 3.35535V8.35535C8 8.73412 8.214 9.08038 8.55279 9.24977L11.8861 10.9164C12.3801 11.1634 12.9808 10.9632 13.2278 10.4692C13.4747 9.97525 13.2745 9.37457 12.7805 9.12759L10 7.73731V3.35535Z" fill="white"/>
</svg>
