<svg width="19" height="19" viewBox="0 0 19 19" fill="none" xmlns="http://www.w3.org/2000/svg">
<path fill-rule="evenodd" clip-rule="evenodd" d="M17.375 5.35535H12.875V1.98035C12.875 1.30535 12.425 0.855347 11.75 0.855347H3.875C1.9625 0.855347 0.5 2.31785 0.5 4.23035V15.4803C0.5 17.3928 1.9625 18.8553 3.875 18.8553H17.375C18.05 18.8553 18.5 18.4053 18.5 17.7303V6.48035C18.5 5.80535 18.05 5.35535 17.375 5.35535ZM2.75 4.23035C2.75 3.55535 3.2 3.10535 3.875 3.10535H10.625V5.35535H2.75V4.23035ZM3.875 16.6053H16.25V7.60535H11.75H2.75V15.4803C2.75 16.1553 3.2 16.6053 3.875 16.6053Z" fill="white"/>
<rect x="12.875" y="10.9803" width="2.25" height="2.25" fill="white"/>
</svg>
